<svg t="1705979147247" class="icon" viewBox="0 0 1024 1024" version="1.1" xmlns="http://www.w3.org/2000/svg" p-id="3563" width="24" height="24"><path d="M510.653 931.287z m0 92.713a92.708 92.708 0 1 0 0-185.426 92.713 92.713 0 0 0 0 185.426M512 512z m0 92.713a92.718 92.718 0 1 0 0-185.431 92.718 92.718 0 0 0 0 185.431m1.347-512z m0 92.713c51.205 0 92.713-41.508 92.713-92.713C606.06 41.508 564.552 0 513.347 0s-92.719 41.508-92.719 92.713c0 51.205 41.513 92.713 92.719 92.713" p-id="3564"></path></svg>