<svg t="1706594344371" class="icon" viewBox="0 0 1024 1024" version="1.1" xmlns="http://www.w3.org/2000/svg" p-id="2359" width="32" height="32"><path d="M1024 512.00256a35.379023 35.379023 0 0 1-10.854346 25.599872l-146.277668 146.431268a36.556617 36.556617 0 0 1-62.310089-25.599872v-73.215634h-219.390903v219.390903h73.164434a36.403018 36.403018 0 0 1 25.599872 62.310088L537.602432 1013.145654a35.839821 35.839821 0 0 1-51.199744 0l-146.533667-146.277668a36.556617 36.556617 0 0 1 25.599872-62.310089h73.266833v-219.493302H219.447223v73.164434a36.403018 36.403018 0 0 1-62.310089 25.599872L10.859466 537.602432a35.839821 35.839821 0 0 1 0-51.199744l146.277668-146.584867a36.556617 36.556617 0 0 1 62.310089 25.599872v73.266834h219.390903V219.396023H365.724891a36.403018 36.403018 0 0 1-25.599872-62.310088L486.402688 10.859466a35.839821 35.839821 0 0 1 51.199744 0l146.431268 146.277668a36.556617 36.556617 0 0 1-25.599872 62.310089h-73.266834V438.786926h219.442103V365.673692a36.403018 36.403018 0 0 1 62.310088-25.599872L1013.401653 486.402688A36.147019 36.147019 0 0 1 1024 512.00256z m0 0" fill="#A8ADAF" p-id="2360"></path></svg>